{
  "accessors": [
    {
      "bufferView": 2,
      "componentType": 5126,
      "count": 5335,
      "max": [
        0.011267406865954399,
        0.011267406865954399,
        0.017999939620494843
      ],
      "min": [
        -0.011267406865954399,
        -0.011267406865954399,
        0.0
      ],
      "type": "VEC3"
    },
    {
      "bufferView": 2,
      "byteOffset": 64020,
      "componentType": 5126,
      "count": 5335,
      "max": [
        1.0,
        1.0,
        1.0
      ],
      "min": [
        -1.0,
        -1.0,
        -1.0
      ],
      "type": "VEC3"
    },
    {
      "bufferView": 1,
      "componentType": 5126,
      "count": 5335,
      "max": [
        1.000000238418579,
        1.0
      ],
      "min": [
        -2.5623472765801125e-07,
        0.0
      ],
      "type": "VEC2"
    },
    {
      "bufferView": 0,
      "componentType": 5125,
      "count": 21876,
      "type": "SCALAR"
    },
    {
      "bufferView": 2,
      "byteOffset": 128040,
      "componentType": 5126,
      "count": 1122,
      "max": [
        0.010761089622974396,
        0.010438594035804272,
        0.017371276393532753
      ],
      "min": [
        -0.010761089622974396,
        -0.009727911092340946,
        0.005613512359559536
      ],
      "type": "VEC3"
    },
    {
      "bufferView": 2,
      "byteOffset": 141504,
      "componentType": 5126,
      "count": 1122,
      "max": [
        0.998327374458313,
        0.9684110283851624,
        0.2572687566280365
      ],
      "min": [
        -0.9983273148536682,
        -0.9024736285209656,
        -0.5261988639831543
      ],
      "type": "VEC3"
    },
    {
      "bufferView": 1,
      "byteOffset": 42680,
      "componentType": 5126,
      "count": 1122,
      "max": [
        0.9531250596046448,
        0.8064535856246948
      ],
      "min": [
        0.03124999813735485,
        0.750782310962677
      ],
      "type": "VEC2"
    },
    {
      "bufferView": 0,
      "byteOffset": 87504,
      "componentType": 5125,
      "count": 5760,
      "type": "SCALAR"
    },
    {
      "bufferView": 2,
      "byteOffset": 154968,
      "componentType": 5126,
      "count": 20668,
      "max": [
        0.00558971893042326,
        0.0015738814836367965,
        0.00810493715107441
      ],
      "min": [
        -0.0055351280607283115,
        -0.0025291447527706623,
        -0.00823546014726162
      ],
      "type": "VEC3"
    },
    {
      "bufferView": 2,
      "byteOffset": 402984,
      "componentType": 5126,
      "count": 20668,
      "max": [
        0.9997559189796448,
        0.9871222376823425,
        0.9874934554100037
      ],
      "min": [
        -0.9999975562095642,
        -0.9871219992637634,
        -0.9876535534858704
      ],
      "type": "VEC3"
    },
    {
      "bufferView": 1,
      "byteOffset": 51656,
      "componentType": 5126,
      "count": 20668,
      "max": [
        0.6191264390945435,
        0.9690102934837341
      ],
      "min": [
        0.37384283542633057,
        0.5232894420623779
      ],
      "type": "VEC2"
    },
    {
      "bufferView": 0,
      "byteOffset": 110544,
      "componentType": 5125,
      "count": 40320,
      "type": "SCALAR"
    }
  ],
  "asset": {
    "extras": {
      "author": "YouniqueĪdeaStudio (https://sketchfab.com/sinnervoncrawsz)",
      "license": "CC-BY-4.0 (http://creativecommons.org/licenses/by/4.0/)",
      "source": "https://sketchfab.com/3d-models/kfc-bucket-8a0260504a924b17a4196634ae4febc2",
      "title": "KFC BUCKET"
    },
    "generator": "Sketchfab-16.61.0",
    "version": "2.0"
  },
  "bufferViews": [
    {
      "buffer": 0,
      "byteLength": 271824,
      "name": "floatBufferViews",
      "target": 34963
    },
    {
      "buffer": 0,
      "byteLength": 217000,
      "byteOffset": 271824,
      "byteStride": 8,
      "name": "floatBufferViews",
      "target": 34962
    },
    {
      "buffer": 0,
      "byteLength": 651000,
      "byteOffset": 488824,
      "byteStride": 12,
      "name": "floatBufferViews",
      "target": 34962
    }
  ],
  "buffers": [
    {
      "byteLength": 1139824,
      "uri": "scene.bin"
    }
  ],
  "materials": [
    {
      "doubleSided": true,
      "name": "Material.007",
      "pbrMetallicRoughness": {
        "baseColorFactor": [
          0.8,
          0.8,
          0.8,
          1.0
        ],
        "metallicFactor": 0.0,
        "roughnessFactor": 0.25
      }
    },
    {
      "doubleSided": true,
      "name": "Material.008",
      "pbrMetallicRoughness": {
        "baseColorFactor": [
          0.800505,
          0.002321390000000001,
          0.0,
          1.0
        ],
        "metallicFactor": 0.0,
        "roughnessFactor": 0.25
      }
    },
    {
      "doubleSided": true,
      "name": "Material.005",
      "pbrMetallicRoughness": {
        "baseColorFactor": [
          0.0,
          0.0,
          0.0,
          1.0
        ],
        "metallicFactor": 0.0,
        "roughnessFactor": 0.43636100034911
      }
    }
  ],
  "meshes": [
    {
      "name": "baza.005_Material.007_0",
      "primitives": [
        {
          "attributes": {
            "NORMAL": 1,
            "POSITION": 0,
            "TEXCOORD_0": 2
          },
          "indices": 3,
          "material": 0,
          "mode": 4
        }
      ]
    },
    {
      "name": "baza.005_Material.008_0",
      "primitives": [
        {
          "attributes": {
            "NORMAL": 5,
            "POSITION": 4,
            "TEXCOORD_0": 6
          },
          "indices": 7,
          "material": 1,
          "mode": 4
        }
      ]
    },
    {
      "name": "stamp.001_Material.005_0",
      "primitives": [
        {
          "attributes": {
            "NORMAL": 9,
            "POSITION": 8,
            "TEXCOORD_0": 10
          },
          "indices": 11,
          "material": 2,
          "mode": 4
        }
      ]
    }
  ],
  "nodes": [
    {
      "children": [
        1
      ],
      "matrix": [
        0.007203874146689826,
        0.0020165645660610854,
        -0.0005044536383900021,
        0.0,
        0.0001791742644626686,
        -0.0024151472351966585,
        -0.007095898376354577,
        0.0,
        -0.0020709667302460516,
        0.006805684528682355,
        -0.002368663297148964,
        0.0,
        0.0,
        0.0,
        0.0,
        1.0
      ],
      "name": "Sketchfab_model"
    },
    {
      "children": [
        2
      ],
      "matrix": [
        0.009999999776482582,
        0.0,
        0.0,
        0.0,
        0.0,
        0.0,
        0.009999999776482582,
        0.0,
        0.0,
        -0.009999999776482582,
        0.0,
        0.0,
        0.0,
        0.0,
        0.0,
        1.0
      ],
      "name": "2509bc38bae3467c8d0cf9e9aacbc24a.fbx"
    },
    {
      "children": [
        3,
        6
      ],
      "name": "RootNode"
    },
    {
      "children": [
        4,
        5
      ],
      "matrix": [
        100000.0,
        0.0,
        0.0,
        0.0,
        0.0,
        -0.01629206793918314,
        -99999.99999999868,
        0.0,
        0.0,
        99999.99999999868,
        -0.01629206793918314,
        0.0,
        0.0,
        1032.8917236328125,
        0.0,
        1.0
      ],
      "name": "baza.005"
    },
    {
      "mesh": 0,
      "name": "baza.005_Material.007_0"
    },
    {
      "mesh": 1,
      "name": "baza.005_Material.008_0"
    },
    {
      "children": [
        7
      ],
      "matrix": [
        76165.421875,
        0.0,
        0.0,
        0.0,
        0.0,
        -0.012408922278040458,
        -76165.421874999,
        0.0,
        0.0,
        76165.421874999,
        -0.012408922278040458,
        0.0,
        16.5291748046875,
        1811.255126953125,
        834.95361328125,
        1.0
      ],
      "name": "stamp.001"
    },
    {
      "mesh": 2,
      "name": "stamp.001_Material.005_0"
    }
  ],
  "scene": 0,
  "scenes": [
    {
      "name": "Sketchfab_Scene",
      "nodes": [
        0
      ]
    }
  ]
}
